<?xml version="1.0" encoding="utf-8"?><svg xmlns="http://www.w3.org/2000/svg" xmlns:xlink="http://www.w3.org/1999/xlink" width="1536" height="703" preserveAspectRatio="xMidYMid" viewBox="0 0 1536 703" style="z-index:1;margin-right:-1.6px;display:block;background-color:rgb(1, 44, 50);animation-play-state:paused" ><g transform="translate(768,351.5) scale(1,1) translate(-768,-351.5)" style="transform:matrix(1, 0, 0, 1, 0, 0);animation-play-state:paused" ><path d="M -100 409.34 C -71.67 413.58 -71.13 412.06 -44 412.06 S -14.68 411.82 12 411.82 S 40.88 423.79 68 423.79 S 96.73 416.49 124 416.49 S 152.74 422.05 180 422.05 S 208.04 412.9 236 412.9 S 264.27 423.99 292 423.99 S 320.93 411.38 348 411.38 S 377.48 407.99 404 407.99 S 433.11 424.82 460 424.82 S 489.71 421.14 516 421.14 S 544.4 421.37 572 421.37 S 600.99 415.34 628 415.34 S 656.33 412.1 684 412.1 S 712.35 414.11 740 414.11 S 768.64 412.48 796 412.48 S 824.94 411.12 852 411.12 S 881.59 417.84 908 417.84 S 937.45 425.2 964 425.2 S 993.63 413.66 1020 413.66 S 1048.27 409.08 1076 409.08 S 1104.17 408.21 1132 408.21 S 1160.99 417.73 1188 417.73 S 1216.61 416.85 1244 416.85 S 1272.67 421.17 1300 421.17 S 1328.14 421.89 1356 421.89 S 1385.22 411.21 1412 411.21 S 1440.2 410.17 1468 410.17 S 1496.55 408.19 1524 408.19 S 1552.33 422.93 1580 422.93 S 1608.24 412.99 1636 412.99 S 1665.45 417.64 1692 417.64 L 1636 703 L -100 703 Z" fill="#0f3135" stroke-width="0" transform="matrix(1,0,0,1,0,0)" style="transform:matrix(1, 0, 0, 1, 0, 0);animation-play-state:paused" ></path>
<path d="M -100 440.91 C -70.51 434.11 -69.74 435.01 -42.52 435.01 S -13.48 432.36 14.97 432.36 S 44.55 431.75 72.45 431.75 S 102.32 434.42 129.93 434.42 S 159.3 434.78 187.42 434.78 S 216.26 430.88 244.9 430.88 S 275.27 438.48 302.38 438.48 S 331.83 440.59 359.87 440.59 S 388.71 425.73 417.35 425.73 S 447.29 436.22 474.83 436.22 S 505.12 444.58 532.32 444.58 S 561.79 432.68 589.8 432.68 S 619.77 431.75 647.28 431.75 S 676.91 437.58 704.77 437.58 S 733.8 441.6 762.25 441.6 S 792.28 436.45 819.74 436.45 S 849.47 426.87 877.22 426.87 S 907.45 427.25 934.7 427.25 S 964.07 445.59 992.19 445.59 S 1021.68 438.7 1049.67 438.7 S 1078.97 431.83 1107.15 431.83 S 1136.37 428.03 1164.64 428.03 S 1193.6 430.49 1222.12 430.49 S 1252.18 434.84 1279.6 434.84 S 1308.73 430.5 1337.09 430.5 S 1366.3 438.48 1394.57 438.48 S 1424.59 434.29 1452.05 434.29 S 1481.79 432.49 1509.54 432.49 S 1539.36 429.38 1567.02 429.38 S 1597.1 428 1624.5 428 S 1654.98 431.44 1681.99 431.44 L 1636 703 L -100 703 Z" fill="#254346" stroke-width="0" transform="matrix(1,0,0,1,1.1340199708938599,0)" style="transform:matrix(1, 0, 0, 1, 1.13402, 0);animation-play-state:paused" ></path>
<path d="M -100 443.6 C -69.65 456.25 -70.44 465.17 -40.95 465.17 S -11.29 459.16 18.1 459.16 S 48.8 466.55 77.14 466.55 S 108.26 458.2 136.19 458.2 S 167.27 454.55 195.24 454.55 S 225.57 453.21 254.29 453.21 S 284.37 455.62 313.33 455.62 S 344.1 448.9 372.38 448.9 S 403.5 457.53 431.43 457.53 S 461.97 453.91 490.48 453.91 S 520.65 453.29 549.52 453.29 S 580.38 445.37 608.57 445.37 S 638.43 458.4 667.62 458.4 S 697.15 447.26 726.67 447.26 S 757.03 463.9 785.71 463.9 S 816.06 457.82 844.76 457.82 S 875.2 456.37 903.81 456.37 S 933.47 448.99 962.86 448.99 S 993.98 458.06 1021.9 458.06 S 1052.89 465.48 1080.95 465.48 S 1111.64 467.14 1140 467.14 S 1170.98 448.52 1199.05 448.52 S 1228.6 453.75 1258.1 453.75 S 1287.83 454.68 1317.14 454.68 S 1347.74 460.84 1376.19 460.84 S 1406.89 457.21 1435.24 457.21 S 1466.31 466.78 1494.29 466.78 S 1524.97 444.99 1553.33 444.99 S 1583.79 460.88 1612.38 460.88 S 1643.25 451.56 1671.43 451.56 L 1636 703 L -100 703 Z" fill="#3b5658" stroke-width="0" transform="matrix(1,0,0,1,3.5863146781921387,0)" style="transform:matrix(1, 0, 0, 1, 3.58631, 0);animation-play-state:paused" ></path>
<path d="M -100 462.84 C -68.54 476.81 -69.25 477.63 -39.3 477.63 S -8.21 473.08 21.4 473.08 S 53.12 483.46 82.1 483.46 S 113.83 470.94 142.8 470.94 S 173.73 471.43 203.5 471.43 S 235.46 477.21 264.2 477.21 S 294.67 480.6 324.9 480.6 S 356.76 468.82 385.59 468.82 S 416.65 473.43 446.29 473.43 S 478.36 477.23 506.99 477.23 S 538.65 473.29 567.69 473.29 S 598.79 483.7 628.39 483.7 S 659.4 479.9 689.09 479.9 S 721.18 462.2 749.79 462.2 S 780.32 476.15 810.49 476.15 S 840.96 476.27 871.19 476.27 S 902.29 484.6 931.89 484.6 S 963.4 473.09 992.59 473.09 S 1024.23 483.29 1053.29 483.29 S 1084.4 477 1113.99 477 S 1144.47 483.47 1174.69 483.47 S 1206.76 466.59 1235.38 466.59 S 1266.61 471.31 1296.08 471.31 S 1326.89 473.74 1356.78 473.74 S 1388.49 476.78 1417.48 476.78 S 1449.43 472.45 1478.18 472.45 S 1508.67 480.49 1538.88 480.49 S 1569.45 468.46 1599.58 468.46 S 1630.05 475.32 1660.28 475.32 L 1636 703 L -100 703 Z" fill="#51696b" stroke-width="0" transform="matrix(1,0,0,1,6.4136857986450195,0)" style="transform:matrix(1, 0, 0, 1, 6.41369, 0);animation-play-state:paused" ></path>
<path d="M -100 488.94 C -68.34 483.06 -68.32 495.2 -37.55 495.2 S -5.16 493.86 24.89 493.86 S 56.43 500.62 87.34 500.62 S 119.42 485.69 149.78 485.69 S 181.97 507.44 212.23 507.44 S 245.19 492.37 274.68 492.37 S 307.22 509.5 337.12 509.5 S 368.66 478.32 399.57 478.32 S 431.1 493.65 462.01 493.65 S 494.03 481.56 524.46 481.56 S 557.08 501.37 586.91 501.37 S 618.39 484.26 649.35 484.26 S 680.66 500.81 711.8 500.81 S 743.69 492.14 774.24 492.14 S 807.1 484.91 836.69 484.91 S 869.12 492.55 899.14 492.55 S 931.49 483.06 961.58 483.06 S 993.85 494.13 1024.03 494.13 S 1055.63 495.57 1086.47 495.57 S 1118.22 502.33 1148.92 502.33 S 1181.59 493.29 1211.37 493.29 S 1242.95 490.09 1273.81 490.09 S 1305.37 506.44 1336.26 506.44 S 1368.57 492.07 1398.71 492.07 S 1430.96 494.35 1461.15 494.35 S 1494.13 501.25 1523.6 501.25 S 1554.89 479.35 1586.04 479.35 S 1617.44 480.56 1648.49 480.56 L 1636 703 L -100 703 Z" fill="#677d7f" stroke-width="0" transform="matrix(1,0,0,1,8.86598014831543,0)" style="transform:matrix(1, 0, 0, 1, 8.86598, 0);animation-play-state:paused" ></path>
<path d="M -100 502.76 C -66.66 505.52 -66.16 519.95 -35.7 519.95 S -2.95 498.69 28.59 498.69 S 61.1 529.94 92.89 529.94 S 126.48 498.24 157.19 498.24 S 190.95 525.48 221.48 525.48 S 254.99 506.23 285.78 506.23 S 318.68 519.81 350.07 519.81 S 382.92 498.92 414.37 498.92 S 448.2 526.11 478.67 526.11 S 512.25 505.43 542.96 505.43 S 575.31 521.79 607.26 521.79 S 640.14 507.21 671.56 507.21 S 705.33 521.54 735.85 521.54 S 768.99 503.74 800.15 503.74 S 833.13 519.78 864.44 519.78 S 897.98 512.8 928.74 512.8 S 962.56 523.76 993.04 523.76 S 1026.75 504.57 1057.33 504.57 S 1091.24 518.11 1121.63 518.11 S 1154.23 511.29 1185.93 511.29 S 1218.19 530.66 1250.22 530.66 S 1283.16 517.17 1314.52 517.17 S 1347.89 497.39 1378.81 497.39 S 1411.73 506.81 1443.11 506.81 S 1475.8 525.29 1507.41 525.29 S 1540.55 525.23 1571.7 525.23 S 1604.66 527.77 1636 527.77 S 1668.42 505.77 1700.3 505.77 L 1636 703 L -100 703 Z" fill="#7e9193" stroke-width="0" transform="matrix(1,0,0,1,10,0)" style="transform:matrix(1, 0, 0, 1, 10, 0);animation-play-state:paused" ></path>
<path d="M -100 524.29 C -65.37 519.96 -65.66 528.78 -33.74 528.78 S 0.98 523.04 32.52 523.04 S 66.34 541.72 98.78 541.72 S 132 536.71 165.04 536.71 S 198.65 548.88 231.3 548.88 S 264.46 523.36 297.56 523.36 S 331.26 551.17 363.82 551.17 S 398.61 549.54 430.08 549.54 S 463.58 539.14 496.34 539.14 S 531.19 519.51 562.6 519.51 S 596.56 536.98 628.85 536.98 S 663.65 521.62 695.11 521.62 S 729.89 551.56 761.37 551.56 S 795.81 526.4 827.63 526.4 S 861.7 522.78 893.89 522.78 S 927.62 519.46 960.15 519.46 S 994.46 519.49 1026.41 519.49 S 1060.53 516.14 1092.67 516.14 S 1125.91 534.7 1158.93 534.7 S 1193.52 521.76 1225.19 521.76 S 1259.66 543.57 1291.45 543.57 S 1324.72 526.41 1357.71 526.41 S 1391.09 541.91 1423.97 541.91 S 1457.33 525.69 1490.23 525.69 S 1523.43 551.8 1556.49 551.8 S 1591.16 527.88 1622.75 527.88 S 1657.18 545.54 1689.01 545.54 L 1636 703 L -100 703 Z" fill="#95a6a7" stroke-width="0" transform="matrix(1,0,0,1,8.86598014831543,0)" style="transform:matrix(1, 0, 0, 1, 8.86598, 0);animation-play-state:paused" ></path>
<path d="M -100 570.59 C -65.43 561 -64.77 567.45 -31.65 567.45 S 3.33 531.39 36.69 531.39 S 71.09 572.66 105.04 572.66 S 140.87 537.09 173.39 537.09 S 207.94 556.14 241.73 556.14 S 277.65 544.96 310.08 544.96 S 344.41 559.08 378.43 559.08 S 414.03 569.11 446.77 569.11 S 481.18 559.89 515.12 559.89 S 550.46 545.14 583.46 545.14 S 618.28 556.32 651.81 556.32 S 686.52 533.21 720.16 533.21 S 755.97 572.53 788.5 572.53 S 823.83 537.4 856.85 537.4 S 891.18 555.49 925.2 555.49 S 961.02 532.84 993.54 532.84 S 1028.8 567.56 1061.89 567.56 S 1097.3 532.94 1130.24 532.94 S 1165.79 547.15 1198.58 547.15 S 1234.3 533 1266.93 533 S 1301.15 535.69 1335.28 535.69 S 1370.8 545.24 1403.62 545.24 S 1438.06 558.5 1471.97 558.5 S 1506.42 557.97 1540.31 557.97 S 1575.77 542.9 1608.66 542.9 S 1643.84 539.04 1677.01 539.04 L 1636 703 L -100 703 Z" fill="#adbcbc" stroke-width="0" transform="matrix(1,0,0,1,6.4136857986450195,0)" style="transform:matrix(1, 0, 0, 1, 6.41369, 0);animation-play-state:paused" ></path>
<path d="M -100 577.66 C -63.76 577.06 -64.47 589.6 -29.43 589.6 S 6.81 582.69 41.14 582.69 S 76.78 589.56 111.71 589.56 S 148.33 578.51 182.28 578.51 S 218.43 587.23 252.85 587.23 S 289.24 556.6 323.41 556.6 S 360.41 576.83 393.98 576.83 S 430.9 565.61 464.55 565.61 S 501.1 591.93 535.12 591.93 S 570.7 552.11 605.69 552.11 S 641.11 582.86 676.26 582.86 S 713.08 581.98 746.83 581.98 S 782.79 576.95 817.4 576.95 S 854.01 564.29 887.97 564.29 S 923.89 583.33 958.54 583.33 S 994.76 563.61 1029.11 563.61 S 1066.04 593.72 1099.67 593.72 S 1136.2 557.33 1170.24 557.33 S 1205.54 584.91 1240.81 584.91 S 1277.81 563.38 1311.38 563.38 S 1347.31 583.67 1381.95 583.67 S 1417.6 555.86 1452.52 555.86 S 1488.13 593.05 1523.09 593.05 S 1558.8 560.46 1593.66 560.46 S 1629.33 585.83 1664.23 585.83 L 1636 703 L -100 703 Z" fill="#c6d2d2" stroke-width="0" transform="matrix(1,0,0,1,3.5863142013549805,0)" style="transform:matrix(1, 0, 0, 1, 3.58631, 0);animation-play-state:paused" ></path>
<path d="M -100 602.74 C -62.66 611.14 -62.71 610.61 -27.06 610.61 S 10.6 574.02 45.88 574.02 S 83.18 604.89 118.82 604.89 S 156.48 571.45 191.76 571.45 S 228.63 600.49 264.71 600.49 S 301.25 615.03 337.65 615.03 S 375.82 606.36 410.59 606.36 S 448.25 606.09 483.53 606.09 S 520.58 609.19 556.47 609.19 S 593.69 567.23 629.41 567.23 S 666.89 598.54 702.35 598.54 S 739.78 571.33 775.29 571.33 S 811.94 611.98 848.24 611.98 S 885.31 580.85 921.18 580.85 S 958.25 600.22 994.12 600.22 S 1032.08 577.87 1067.06 577.87 S 1105.06 598.24 1140 598.24 S 1176.56 578.85 1212.94 578.85 S 1250.04 601.7 1285.88 601.7 S 1323.45 579.43 1358.82 579.43 S 1397.05 601.14 1431.76 601.14 S 1468.84 605.87 1504.71 605.87 S 1542.2 580.43 1577.65 580.43 S 1615.83 600.44 1650.59 600.44 L 1636 703 L -100 703 Z" fill="#dfe8e8" stroke-width="0" transform="matrix(1,0,0,1,1.1340198516845703,0)" style="transform:matrix(1, 0, 0, 1, 1.13402, 0);animation-play-state:paused" ></path></g></svg>